<svg width="100" height="100" viewBox="0 0 100 100" fill="none" xmlns="http://www.w3.org/2000/svg">
<rect width="100" height="100" rx="10" fill="#4ECDC4"/>
<rect x="25" y="41" width="45" height="49" fill="#FF6B6B"/>
<rect x="38" y="34" width="18" height="14" rx="5" fill="#4ECDC4"/>
<rect x="66" y="41" width="24" height="11" fill="#FF6B6B"/>
<rect x="4" y="41" width="24" height="11" fill="#FF6B6B"/>
<path d="M68 88V53.5L58.8341 73.665C58.299 74.8423 57.3285 75.7665 56.1265 76.2435L26.5 88H68Z" fill="#DC5858" stroke="#DC5858"/>
<rect x="28" y="36" width="45" height="49" fill="#FFE66D" fill-opacity="0.59"/>
<rect x="38" y="29" width="18" height="14" rx="5" fill="#4ECDC4"/>
<rect x="73" y="36" width="20" height="11" fill="#FFE66D" fill-opacity="0.59"/>
<rect x="7" y="36" width="21" height="11" fill="#FFE66D" fill-opacity="0.59"/>
<path d="M21.1211 28.0801H25.1641V29H19.9902V20.4688H21.1211V28.0801ZM32.623 25.0098C32.623 25.8457 32.4824 26.5762 32.2012 27.2012C31.9199 27.8223 31.5215 28.2969 31.0059 28.625C30.4902 28.9531 29.8887 29.1172 29.2012 29.1172C28.5293 29.1172 27.9336 28.9531 27.4141 28.625C26.8945 28.293 26.4902 27.8223 26.2012 27.2129C25.916 26.5996 25.7695 25.8906 25.7617 25.0859V24.4707C25.7617 23.6504 25.9043 22.9258 26.1895 22.2969C26.4746 21.668 26.877 21.1875 27.3965 20.8555C27.9199 20.5195 28.5176 20.3516 29.1895 20.3516C29.873 20.3516 30.4746 20.5176 30.9941 20.8496C31.5176 21.1777 31.9199 21.6562 32.2012 22.2852C32.4824 22.9102 32.623 23.6387 32.623 24.4707V25.0098ZM31.5039 24.459C31.5039 23.4473 31.3008 22.6719 30.8945 22.1328C30.4883 21.5898 29.9199 21.3184 29.1895 21.3184C28.4785 21.3184 27.918 21.5898 27.5078 22.1328C27.1016 22.6719 26.8926 23.4219 26.8809 24.3828V25.0098C26.8809 25.9902 27.0859 26.7617 27.4961 27.3242C27.9102 27.8828 28.4785 28.1621 29.2012 28.1621C29.9277 28.1621 30.4902 27.8984 30.8887 27.3711C31.2871 26.8398 31.4922 26.0801 31.5039 25.0918V24.459ZM40.873 25.0098C40.873 25.8457 40.7324 26.5762 40.4512 27.2012C40.1699 27.8223 39.7715 28.2969 39.2559 28.625C38.7402 28.9531 38.1387 29.1172 37.4512 29.1172C36.7793 29.1172 36.1836 28.9531 35.6641 28.625C35.1445 28.293 34.7402 27.8223 34.4512 27.2129C34.166 26.5996 34.0195 25.8906 34.0117 25.0859V24.4707C34.0117 23.6504 34.1543 22.9258 34.4395 22.2969C34.7246 21.668 35.127 21.1875 35.6465 20.8555C36.1699 20.5195 36.7676 20.3516 37.4395 20.3516C38.123 20.3516 38.7246 20.5176 39.2441 20.8496C39.7676 21.1777 40.1699 21.6562 40.4512 22.2852C40.7324 22.9102 40.873 23.6387 40.873 24.4707V25.0098ZM39.7539 24.459C39.7539 23.4473 39.5508 22.6719 39.1445 22.1328C38.7383 21.5898 38.1699 21.3184 37.4395 21.3184C36.7285 21.3184 36.168 21.5898 35.7578 22.1328C35.3516 22.6719 35.1426 23.4219 35.1309 24.3828V25.0098C35.1309 25.9902 35.3359 26.7617 35.7461 27.3242C36.1602 27.8828 36.7285 28.1621 37.4512 28.1621C38.1777 28.1621 38.7402 27.8984 39.1387 27.3711C39.5371 26.8398 39.7422 26.0801 39.7539 25.0918V24.459ZM44.7285 25.0332L43.6855 26.1172V29H42.5605V20.4688H43.6855V24.6875L47.4766 20.4688H48.8359L45.4785 24.2363L49.0996 29H47.752L44.7285 25.0332ZM54.7949 26.7734H51.2207L50.418 29H49.2578L52.5156 20.4688H53.5L56.7637 29H55.6094L54.7949 26.7734ZM51.5605 25.8477H54.4609L53.0078 21.8574L51.5605 25.8477ZM59.043 28.0801H63.0859V29H57.9121V20.4688H59.043V28.0801ZM65.5762 29H64.4512V20.4688H65.5762V29ZM69.8066 25.0332L68.7637 26.1172V29H67.6387V20.4688H68.7637V24.6875L72.5547 20.4688H73.9141L70.5566 24.2363L74.1777 29H72.8301L69.8066 25.0332ZM79.9844 25.0566H76.2871V28.0801H80.582V29H75.1621V20.4688H80.5234V21.3945H76.2871V24.1367H79.9844V25.0566Z" fill="white"/>
<path d="M22.1211 28.0801H26.1641V29H20.9902V20.4688H22.1211V28.0801ZM33.623 25.0098C33.623 25.8457 33.4824 26.5762 33.2012 27.2012C32.9199 27.8223 32.5215 28.2969 32.0059 28.625C31.4902 28.9531 30.8887 29.1172 30.2012 29.1172C29.5293 29.1172 28.9336 28.9531 28.4141 28.625C27.8945 28.293 27.4902 27.8223 27.2012 27.2129C26.916 26.5996 26.7695 25.8906 26.7617 25.0859V24.4707C26.7617 23.6504 26.9043 22.9258 27.1895 22.2969C27.4746 21.668 27.877 21.1875 28.3965 20.8555C28.9199 20.5195 29.5176 20.3516 30.1895 20.3516C30.873 20.3516 31.4746 20.5176 31.9941 20.8496C32.5176 21.1777 32.9199 21.6562 33.2012 22.2852C33.4824 22.9102 33.623 23.6387 33.623 24.4707V25.0098ZM32.5039 24.459C32.5039 23.4473 32.3008 22.6719 31.8945 22.1328C31.4883 21.5898 30.9199 21.3184 30.1895 21.3184C29.4785 21.3184 28.918 21.5898 28.5078 22.1328C28.1016 22.6719 27.8926 23.4219 27.8809 24.3828V25.0098C27.8809 25.9902 28.0859 26.7617 28.4961 27.3242C28.9102 27.8828 29.4785 28.1621 30.2012 28.1621C30.9277 28.1621 31.4902 27.8984 31.8887 27.3711C32.2871 26.8398 32.4922 26.0801 32.5039 25.0918V24.459ZM41.873 25.0098C41.873 25.8457 41.7324 26.5762 41.4512 27.2012C41.1699 27.8223 40.7715 28.2969 40.2559 28.625C39.7402 28.9531 39.1387 29.1172 38.4512 29.1172C37.7793 29.1172 37.1836 28.9531 36.6641 28.625C36.1445 28.293 35.7402 27.8223 35.4512 27.2129C35.166 26.5996 35.0195 25.8906 35.0117 25.0859V24.4707C35.0117 23.6504 35.1543 22.9258 35.4395 22.2969C35.7246 21.668 36.127 21.1875 36.6465 20.8555C37.1699 20.5195 37.7676 20.3516 38.4395 20.3516C39.123 20.3516 39.7246 20.5176 40.2441 20.8496C40.7676 21.1777 41.1699 21.6562 41.4512 22.2852C41.7324 22.9102 41.873 23.6387 41.873 24.4707V25.0098ZM40.7539 24.459C40.7539 23.4473 40.5508 22.6719 40.1445 22.1328C39.7383 21.5898 39.1699 21.3184 38.4395 21.3184C37.7285 21.3184 37.168 21.5898 36.7578 22.1328C36.3516 22.6719 36.1426 23.4219 36.1309 24.3828V25.0098C36.1309 25.9902 36.3359 26.7617 36.7461 27.3242C37.1602 27.8828 37.7285 28.1621 38.4512 28.1621C39.1777 28.1621 39.7402 27.8984 40.1387 27.3711C40.5371 26.8398 40.7422 26.0801 40.7539 25.0918V24.459ZM45.7285 25.0332L44.6855 26.1172V29H43.5605V20.4688H44.6855V24.6875L48.4766 20.4688H49.8359L46.4785 24.2363L50.0996 29H48.752L45.7285 25.0332ZM55.7949 26.7734H52.2207L51.418 29H50.2578L53.5156 20.4688H54.5L57.7637 29H56.6094L55.7949 26.7734ZM52.5605 25.8477H55.4609L54.0078 21.8574L52.5605 25.8477ZM60.043 28.0801H64.0859V29H58.9121V20.4688H60.043V28.0801ZM66.5762 29H65.4512V20.4688H66.5762V29ZM70.8066 25.0332L69.7637 26.1172V29H68.6387V20.4688H69.7637V24.6875L73.5547 20.4688H74.9141L71.5566 24.2363L75.1777 29H73.8301L70.8066 25.0332ZM80.9844 25.0566H77.2871V28.0801H81.582V29H76.1621V20.4688H81.5234V21.3945H77.2871V24.1367H80.9844V25.0566Z" fill="white" fill-opacity="0.5"/>
</svg>
