<svg width="350" height="78" viewBox="0 0 350 78" fill="none" xmlns="http://www.w3.org/2000/svg">
<rect width="350" height="78" rx="10" fill="#4ECDC4"/>
<path d="M113.777 57.627H128.602V61H109.631V29.7188H113.777V57.627ZM155.951 46.3691C155.951 49.4342 155.436 52.1126 154.404 54.4043C153.373 56.6816 151.912 58.4219 150.021 59.625C148.131 60.8281 145.925 61.4297 143.404 61.4297C140.941 61.4297 138.757 60.8281 136.852 59.625C134.947 58.4076 133.464 56.6816 132.404 54.4473C131.359 52.1986 130.822 49.599 130.793 46.6484V44.3926C130.793 41.3848 131.316 38.7279 132.361 36.4219C133.407 34.1159 134.882 32.3542 136.787 31.1367C138.706 29.9049 140.898 29.2891 143.361 29.2891C145.868 29.2891 148.074 29.8978 149.979 31.1152C151.898 32.3184 153.373 34.0729 154.404 36.3789C155.436 38.6706 155.951 41.3418 155.951 44.3926V46.3691ZM151.848 44.3496C151.848 40.64 151.103 37.7969 149.613 35.8203C148.124 33.8294 146.04 32.834 143.361 32.834C140.755 32.834 138.699 33.8294 137.195 35.8203C135.706 37.7969 134.939 40.5469 134.896 44.0703V46.3691C134.896 49.9642 135.648 52.793 137.152 54.8555C138.671 56.9036 140.755 57.9277 143.404 57.9277C146.068 57.9277 148.131 56.9609 149.592 55.0273C151.053 53.0794 151.805 50.2936 151.848 46.6699V44.3496ZM186.201 46.3691C186.201 49.4342 185.686 52.1126 184.654 54.4043C183.623 56.6816 182.162 58.4219 180.271 59.625C178.381 60.8281 176.175 61.4297 173.654 61.4297C171.191 61.4297 169.007 60.8281 167.102 59.625C165.197 58.4076 163.714 56.6816 162.654 54.4473C161.609 52.1986 161.072 49.599 161.043 46.6484V44.3926C161.043 41.3848 161.566 38.7279 162.611 36.4219C163.657 34.1159 165.132 32.3542 167.037 31.1367C168.956 29.9049 171.148 29.2891 173.611 29.2891C176.118 29.2891 178.324 29.8978 180.229 31.1152C182.148 32.3184 183.623 34.0729 184.654 36.3789C185.686 38.6706 186.201 41.3418 186.201 44.3926V46.3691ZM182.098 44.3496C182.098 40.64 181.353 37.7969 179.863 35.8203C178.374 33.8294 176.29 32.834 173.611 32.834C171.005 32.834 168.949 33.8294 167.445 35.8203C165.956 37.7969 165.189 40.5469 165.146 44.0703V46.3691C165.146 49.9642 165.898 52.793 167.402 54.8555C168.921 56.9036 171.005 57.9277 173.654 57.9277C176.318 57.9277 178.381 56.9609 179.842 55.0273C181.303 53.0794 182.055 50.2936 182.098 46.6699V44.3496ZM200.338 46.4551L196.514 50.4297V61H192.389V29.7188H196.514V45.1875L210.414 29.7188H215.398L203.088 43.5332L216.365 61H211.424L200.338 46.4551ZM237.248 52.8359H224.143L221.199 61H216.945L228.891 29.7188H232.5L244.467 61H240.234L237.248 52.8359ZM225.389 49.4414H236.023L230.695 34.8105L225.389 49.4414ZM252.824 57.627H267.648V61H248.678V29.7188H252.824V57.627ZM276.779 61H272.654V29.7188H276.779V61ZM292.291 46.4551L288.467 50.4297V61H284.342V29.7188H288.467V45.1875L302.367 29.7188H307.352L295.041 43.5332L308.318 61H303.377L292.291 46.4551ZM329.609 46.541H316.053V57.627H331.801V61H311.928V29.7188H331.586V33.1133H316.053V43.168H329.609V46.541Z" fill="white"/>
<path d="M115.777 57.627H130.602V61H111.631V29.7188H115.777V57.627ZM157.951 46.3691C157.951 49.4342 157.436 52.1126 156.404 54.4043C155.373 56.6816 153.912 58.4219 152.021 59.625C150.131 60.8281 147.925 61.4297 145.404 61.4297C142.941 61.4297 140.757 60.8281 138.852 59.625C136.947 58.4076 135.464 56.6816 134.404 54.4473C133.359 52.1986 132.822 49.599 132.793 46.6484V44.3926C132.793 41.3848 133.316 38.7279 134.361 36.4219C135.407 34.1159 136.882 32.3542 138.787 31.1367C140.706 29.9049 142.898 29.2891 145.361 29.2891C147.868 29.2891 150.074 29.8978 151.979 31.1152C153.898 32.3184 155.373 34.0729 156.404 36.3789C157.436 38.6706 157.951 41.3418 157.951 44.3926V46.3691ZM153.848 44.3496C153.848 40.64 153.103 37.7969 151.613 35.8203C150.124 33.8294 148.04 32.834 145.361 32.834C142.755 32.834 140.699 33.8294 139.195 35.8203C137.706 37.7969 136.939 40.5469 136.896 44.0703V46.3691C136.896 49.9642 137.648 52.793 139.152 54.8555C140.671 56.9036 142.755 57.9277 145.404 57.9277C148.068 57.9277 150.131 56.9609 151.592 55.0273C153.053 53.0794 153.805 50.2936 153.848 46.6699V44.3496ZM188.201 46.3691C188.201 49.4342 187.686 52.1126 186.654 54.4043C185.623 56.6816 184.162 58.4219 182.271 59.625C180.381 60.8281 178.175 61.4297 175.654 61.4297C173.191 61.4297 171.007 60.8281 169.102 59.625C167.197 58.4076 165.714 56.6816 164.654 54.4473C163.609 52.1986 163.072 49.599 163.043 46.6484V44.3926C163.043 41.3848 163.566 38.7279 164.611 36.4219C165.657 34.1159 167.132 32.3542 169.037 31.1367C170.956 29.9049 173.148 29.2891 175.611 29.2891C178.118 29.2891 180.324 29.8978 182.229 31.1152C184.148 32.3184 185.623 34.0729 186.654 36.3789C187.686 38.6706 188.201 41.3418 188.201 44.3926V46.3691ZM184.098 44.3496C184.098 40.64 183.353 37.7969 181.863 35.8203C180.374 33.8294 178.29 32.834 175.611 32.834C173.005 32.834 170.949 33.8294 169.445 35.8203C167.956 37.7969 167.189 40.5469 167.146 44.0703V46.3691C167.146 49.9642 167.898 52.793 169.402 54.8555C170.921 56.9036 173.005 57.9277 175.654 57.9277C178.318 57.9277 180.381 56.9609 181.842 55.0273C183.303 53.0794 184.055 50.2936 184.098 46.6699V44.3496ZM202.338 46.4551L198.514 50.4297V61H194.389V29.7188H198.514V45.1875L212.414 29.7188H217.398L205.088 43.5332L218.365 61H213.424L202.338 46.4551ZM239.248 52.8359H226.143L223.199 61H218.945L230.891 29.7188H234.5L246.467 61H242.234L239.248 52.8359ZM227.389 49.4414H238.023L232.695 34.8105L227.389 49.4414ZM254.824 57.627H269.648V61H250.678V29.7188H254.824V57.627ZM278.779 61H274.654V29.7188H278.779V61ZM294.291 46.4551L290.467 50.4297V61H286.342V29.7188H290.467V45.1875L304.367 29.7188H309.352L297.041 43.5332L310.318 61H305.377L294.291 46.4551ZM331.609 46.541H318.053V57.627H333.801V61H313.928V29.7188H333.586V33.1133H318.053V43.168H331.609V46.541Z" fill="white" fill-opacity="0.5"/>
<rect x="32" y="19" width="45" height="49" fill="#FF6B6B"/>
<rect x="46" y="8" width="17" height="18" rx="5" fill="#4ECDC4"/>
<rect x="74" y="19" width="24" height="10" fill="#FF6B6B"/>
<rect x="11" y="19" width="24" height="10" fill="#FF6B6B"/>
<path d="M77 64V29L67.712 49.4829C67.1779 50.6608 66.2081 51.5859 65.0064 52.0639L35 64H77Z" fill="#DC5858" stroke="#DC5858"/>
<rect x="35" y="12" width="46" height="52" fill="#FFE66D" fill-opacity="0.59"/>
<rect x="46" y="5" width="17" height="14" rx="5" fill="#4ECDC4"/>
<rect x="81" y="12" width="21" height="10" fill="#FFE66D" fill-opacity="0.59"/>
<rect x="14" y="12" width="21" height="10" fill="#FFE66D" fill-opacity="0.59"/>
</svg>
